<svg width="20" height="20" viewBox="0 0 20 20" fill="none" xmlns="http://www.w3.org/2000/svg">
<path d="M17.0539 14.232C16.9906 14.3377 16.9071 14.4298 16.8082 14.5032C16.7092 14.5766 16.5968 14.6297 16.4773 14.6596C16.3578 14.6895 16.2336 14.6956 16.1117 14.6774C15.9899 14.6593 15.8728 14.6173 15.7672 14.5539L10.9375 11.6555V16.875C10.9375 17.1236 10.8388 17.3621 10.6629 17.5379C10.4871 17.7137 10.2487 17.8125 10 17.8125C9.75139 17.8125 9.51293 17.7137 9.33711 17.5379C9.1613 17.3621 9.06253 17.1236 9.06253 16.875V11.6555L4.23284 14.5539C4.12727 14.6173 4.01025 14.6592 3.88848 14.6773C3.7667 14.6955 3.64254 14.6894 3.52309 14.6596C3.40365 14.6297 3.29125 14.5766 3.19232 14.5033C3.09339 14.43 3.00986 14.338 2.94651 14.2324C2.81856 14.0192 2.78056 13.7639 2.84085 13.5227C2.90114 13.2814 3.05479 13.074 3.268 12.9461L8.17815 10L3.268 7.05391C3.05479 6.92596 2.90114 6.71856 2.84085 6.47732C2.78056 6.23609 2.81856 5.98079 2.94651 5.76758C3.07446 5.55437 3.28186 5.40072 3.52309 5.34043C3.76433 5.28014 4.01963 5.31815 4.23284 5.44609L9.06253 8.34453V3.125C9.06253 2.87636 9.1613 2.6379 9.33711 2.46209C9.51293 2.28627 9.75139 2.1875 10 2.1875C10.2487 2.1875 10.4871 2.28627 10.6629 2.46209C10.8388 2.6379 10.9375 2.87636 10.9375 3.125V8.34453L15.7672 5.44609C15.8728 5.38274 15.9898 5.3408 16.1116 5.32267C16.2334 5.30454 16.3575 5.31058 16.477 5.34043C16.5964 5.37028 16.7088 5.42337 16.8077 5.49666C16.9067 5.56995 16.9902 5.66201 17.0535 5.76758C17.1169 5.87315 17.1588 5.99016 17.177 6.11194C17.1951 6.23372 17.1891 6.35788 17.1592 6.47732C17.1294 6.59677 17.0763 6.70917 17.003 6.8081C16.9297 6.90703 16.8376 6.99055 16.7321 7.05391L11.8219 10L16.7321 12.9461C16.9452 13.074 17.0989 13.2813 17.1593 13.5224C17.2196 13.7636 17.1817 14.0188 17.0539 14.232Z" fill="#5C6970"/>
</svg>
