<svg width="20" height="20" viewBox="0 0 20 20" fill="none" xmlns="http://www.w3.org/2000/svg">
<path d="M15.5 5H13.25V4.25C13.25 3.78587 13.0656 3.34075 12.7374 3.01256C12.4092 2.68437 11.9641 2.5 11.5 2.5H8.5C8.03587 2.5 7.59075 2.68437 7.26256 3.01256C6.93437 3.34075 6.75 3.78587 6.75 4.25V5H4.5C4.30109 5 4.11032 5.07902 3.96967 5.21967C3.82902 5.36032 3.75 5.55109 3.75 5.75C3.75 5.94891 3.82902 6.13968 3.96967 6.28033C4.11032 6.42098 4.30109 6.5 4.5 6.5H4.75V15C4.75 15.3315 4.8817 15.6495 5.11612 15.8839C5.35054 16.1183 5.66848 16.25 6 16.25H14C14.3315 16.25 14.6495 16.1183 14.8839 15.8839C15.1183 15.6495 15.25 15.3315 15.25 15V6.5H15.5C15.6989 6.5 15.8897 6.42098 16.0303 6.28033C16.171 6.13968 16.25 5.94891 16.25 5.75C16.25 5.55109 16.171 5.36032 16.0303 5.21967C15.8897 5.07902 15.6989 5 15.5 5ZM8.25 4.25C8.25 4.1837 8.27634 4.12011 8.32322 4.07322C8.37011 4.02634 8.4337 4 8.5 4H11.5C11.5663 4 11.6299 4.02634 11.6768 4.07322C11.7237 4.12011 11.75 4.1837 11.75 4.25V5H8.25V4.25ZM13.75 14.75H6.25V6.5H13.75V14.75ZM9.25 8.5V12.5C9.25 12.6989 9.17098 12.8897 9.03033 13.0303C8.88968 13.171 8.69891 13.25 8.5 13.25C8.30109 13.25 8.11032 13.171 7.96967 13.0303C7.82902 12.8897 7.75 12.6989 7.75 12.5V8.5C7.75 8.30109 7.82902 8.11032 7.96967 7.96967C8.11032 7.82902 8.30109 7.75 8.5 7.75C8.69891 7.75 8.88968 7.82902 9.03033 7.96967C9.17098 8.11032 9.25 8.30109 9.25 8.5ZM12.25 8.5V12.5C12.25 12.6989 12.171 12.8897 12.0303 13.0303C11.8897 13.171 11.6989 13.25 11.5 13.25C11.3011 13.25 11.1103 13.171 10.9697 13.0303C10.829 12.8897 10.75 12.6989 10.75 12.5V8.5C10.75 8.30109 10.829 8.11032 10.9697 7.96967C11.1103 7.82902 11.3011 7.75 11.5 7.75C11.6989 7.75 11.8897 7.82902 12.0303 7.96967C12.171 8.11032 12.25 8.30109 12.25 8.5Z" fill="#5C6970"/>
</svg>
