<svg viewBox="0 0 20 20" fill="none" xmlns="http://www.w3.org/2000/svg">
<path d="M18.1633 16.8367L14.4531 13.125C15.5656 11.6754 16.0849 9.85687 15.9059 8.03839C15.7268 6.21991 14.8628 4.53763 13.489 3.3328C12.1152 2.12798 10.3345 1.49082 8.50822 1.55059C6.68193 1.61036 4.94675 2.36258 3.65467 3.65466C2.3626 4.94673 1.61038 6.68191 1.55061 8.50821C1.49084 10.3345 2.12799 12.1151 3.33282 13.4889C4.53765 14.8627 6.21993 15.7268 8.03841 15.9059C9.85688 16.0849 11.6754 15.5655 13.125 14.4531L16.8383 18.1672C16.9255 18.2544 17.029 18.3236 17.143 18.3708C17.2569 18.418 17.379 18.4423 17.5024 18.4423C17.6257 18.4423 17.7478 18.418 17.8617 18.3708C17.9757 18.3236 18.0792 18.2544 18.1664 18.1672C18.2536 18.08 18.3228 17.9765 18.37 17.8625C18.4172 17.7486 18.4415 17.6265 18.4415 17.5031C18.4415 17.3798 18.4172 17.2577 18.37 17.1437C18.3228 17.0298 18.2536 16.9263 18.1664 16.8391L18.1633 16.8367ZM3.43752 8.75C3.43752 7.69929 3.74909 6.67217 4.33283 5.79853C4.91658 4.9249 5.74628 4.24398 6.71701 3.84189C7.68774 3.4398 8.75591 3.33459 9.78643 3.53958C10.817 3.74456 11.7636 4.25053 12.5065 4.9935C13.2495 5.73646 13.7555 6.68306 13.9604 7.71358C14.1654 8.74411 14.0602 9.81227 13.6581 10.783C13.256 11.7537 12.5751 12.5834 11.7015 13.1672C10.8278 13.7509 9.80073 14.0625 8.75002 14.0625C7.3415 14.0611 5.99108 13.5009 4.99511 12.5049C3.99914 11.5089 3.43896 10.1585 3.43752 8.75Z"/>
</svg>
